<svg width="70" height="78" viewBox="0 0 70 78" fill="none" xmlns="http://www.w3.org/2000/svg">
<path fill-rule="evenodd" clip-rule="evenodd" d="M2.3567 32.1769C2.3567 32.1769 2.3567 32.1769 2.3567 32.1769L3.08928 35.9412C3.20853 36.554 2.80905 37.1476 2.19702 37.267C1.58498 37.3864 0.992156 36.9864 0.8729 36.3736L0.140319 32.6092C-0.75122 28.0275 2.71749 23.7388 7.36967 23.7388H62.631C67.2281 23.7388 70.6841 27.9331 69.8846 32.4767L62.9518 71.8631C62.3285 75.4059 59.2776 77.9996 55.6982 77.9996H15.7304C12.2918 77.9996 9.3201 75.6013 8.5511 72.2323C8.5511 72.2322 8.55111 72.2323 8.5511 72.2323L7.47036 67.4979C7.33142 66.8893 7.71157 66.2831 8.31944 66.144C8.92731 66.0049 9.53271 66.3855 9.67165 66.9942L10.7524 71.7285C11.2899 74.0832 13.3591 75.7388 15.7304 75.7388H55.6982C58.1663 75.7388 60.2921 73.9482 60.728 71.4708L67.6608 32.0844C68.2213 28.8992 65.7982 25.9996 62.631 25.9996H7.36967C4.16441 25.9996 1.73169 28.9648 2.3567 32.1769Z" fill="#999999"/>
<path d="M32.6318 2.80237C33.183 1.97733 32.9642 0.859479 32.1431 0.305591C31.3218 -0.248297 30.2092 -0.0284212 29.658 0.796623L11.0258 28.6829C10.4746 29.508 10.6934 30.6258 11.5146 31.1797C12.3357 31.7335 13.4483 31.5137 13.9996 30.6887L32.6318 2.80237Z" fill="#999999"/>
<path d="M56.0382 30.5008C56.8943 30.9984 57.9897 30.7045 58.4851 29.8443C58.98 28.9841 58.6875 27.8834 57.8315 27.3858L35.0961 14.1713C34.24 13.6737 33.1444 13.9677 32.6492 14.8279C32.1539 15.688 32.4465 16.7887 33.3026 17.2863L56.0382 30.5008Z" fill="#999999"/>
<path fill-rule="evenodd" clip-rule="evenodd" d="M35.0116 53.0207C34.7143 53.0898 34.3489 53.3821 34.1146 53.694C33.6014 54.3772 32.7027 54.4537 32.1073 53.8647C31.5119 53.2758 31.4453 52.2445 31.9585 51.5613C32.4358 50.9259 33.3169 50.0816 34.4469 49.8192C35.043 49.6807 35.7148 49.7055 36.39 50.0265C37.06 50.345 37.6367 50.9087 38.1169 51.6698C38.5779 52.4004 38.4355 53.4215 37.7988 53.9505C37.1621 54.4795 36.2723 54.3161 35.8113 53.5855C35.5743 53.2099 35.3904 53.087 35.3007 53.0443C35.2162 53.0042 35.1291 52.9935 35.0116 53.0207Z" fill="#999999"/>
<path d="M25.4035 47.4782C26.3388 47.4782 27.097 46.7191 27.097 45.7826C27.097 44.8461 26.3388 44.0869 25.4035 44.0869C24.4682 44.0869 23.71 44.8461 23.71 45.7826C23.71 46.7191 24.4682 47.4782 25.4035 47.4782Z" fill="#999999"/>
<path d="M44.5969 47.4782C45.5325 47.4782 46.2904 46.7191 46.2904 45.7826C46.2904 44.8461 45.5325 44.0869 44.5969 44.0869C43.6612 44.0869 42.9033 44.8461 42.9033 45.7826C42.9033 46.7191 43.6612 47.4782 44.5969 47.4782Z" fill="#999999"/>
</svg>
