<svg width="17" height="16" viewBox="0 0 17 16" fill="none" xmlns="http://www.w3.org/2000/svg">
<path d="M9.24707 10.375C9.24707 10.0298 8.96726 9.75 8.62207 9.75C8.27688 9.75 7.99707 10.0298 7.99707 10.375V12.875C7.99707 13.2202 8.27688 13.5 8.62207 13.5C8.96726 13.5 9.24707 13.2202 9.24707 12.875V10.375Z" fill="#111111"/>
<path d="M2.37207 9.75C2.02688 9.75 1.74707 10.0298 1.74707 10.375V12.875C1.74707 14.5981 3.14895 16 4.87207 16H12.3721C14.0952 16 15.4971 14.5981 15.4971 12.875V10.375C15.4971 10.0298 15.2173 9.75 14.8721 9.75C14.5269 9.75 14.2471 10.0298 14.2471 10.375V12.875C14.2471 13.9089 13.4059 14.75 12.3721 14.75H4.87207C3.8382 14.75 2.99707 13.9089 2.99707 12.875V10.375C2.99707 10.0298 2.71726 9.75 2.37207 9.75Z" fill="#111111"/>
<path d="M2.49707 8.75H14.7471C15.7809 8.75 16.6221 7.90887 16.6221 6.875V5.625C16.6221 4.59113 15.7809 3.75 14.7471 3.75H12.6607C12.8742 3.38197 12.9971 2.95519 12.9971 2.5C12.9971 1.1215 11.8756 0 10.4971 0C9.75091 0 9.08054 0.329 8.62207 0.849031C8.1636 0.329 7.49323 0 6.74707 0C5.36857 0 4.24707 1.1215 4.24707 2.5C4.24707 2.95519 4.36995 3.38197 4.58341 3.75H2.49707C1.4632 3.75 0.62207 4.59113 0.62207 5.625V6.875C0.62207 7.90887 1.4632 8.75 2.49707 8.75ZM10.4971 1.25C11.1863 1.25 11.7471 1.81075 11.7471 2.5C11.7471 3.18925 11.1863 3.75 10.4971 3.75H9.24707V2.5C9.24707 1.81075 9.80782 1.25 10.4971 1.25ZM5.49707 2.5C5.49707 1.81075 6.05782 1.25 6.74707 1.25C7.43632 1.25 7.99707 1.81075 7.99707 2.5V3.75H6.74707C6.05782 3.75 5.49707 3.18925 5.49707 2.5ZM1.87207 5.625C1.87207 5.28038 2.15245 5 2.49707 5H7.99707V5.625C7.99707 5.97019 8.27688 6.25 8.62207 6.25C8.96726 6.25 9.24707 5.97019 9.24707 5.625V5H14.7471C15.0917 5 15.3721 5.28038 15.3721 5.625V6.875C15.3721 7.21962 15.0917 7.5 14.7471 7.5H2.49707C2.15245 7.5 1.87207 7.21962 1.87207 6.875V5.625Z" fill="#111111"/>
</svg>
