<svg width="12" height="15" viewBox="0 0 12 15" fill="none" xmlns="http://www.w3.org/2000/svg">
<path d="M5.60454 14.9995C3.16797 14.9995 0.978235 13.4433 0.248199 11.1187C0.0937605 10.627 -0.00026989 10.105 -0.00026989 9.56303C-0.00026989 6.53116 2.48197 4.08474 2.48197 4.08474C2.48197 4.08474 2.31097 5.0751 2.41736 5.91811C2.52375 6.76112 2.9158 7.27863 2.9158 7.27863C2.9158 7.27863 2.62951 5.95493 3.00989 5.06745C3.44774 4.04597 4.26441 3.57212 4.57811 2.65239C4.93918 1.59384 4.39814 0.362793 4.39814 0.362793C4.39814 0.362793 6.17769 1.05043 7.46363 2.82489C8.92208 4.83742 7.9393 7.43025 7.9393 7.43025C7.9393 7.43025 8.07524 6.71408 8.8123 6.13383C9.54936 5.55359 9.25077 4.65369 9.25077 4.65369C9.25077 4.65369 11.2432 6.88664 11.2432 9.56309C11.2432 10.2897 11.0351 11.0225 10.732 11.7045C9.83572 13.7211 7.81134 14.9995 5.60454 14.9995Z" fill="#D10028"/>
<path d="M2.4823 4.08545C2.4823 4.08545 2.38946 4.62372 2.38325 5.2443C1.80239 6.21722 1.25458 7.51226 1.25458 8.93645C1.25458 9.47842 1.34861 10.0004 1.50304 10.4921C2.23308 12.8167 4.42282 14.373 6.85939 14.373C7.51434 14.373 8.15286 14.2595 8.75098 14.0484C7.83808 14.6576 6.7461 15.0002 5.60481 15.0002C3.16824 15.0002 0.978505 13.444 0.248467 11.1194C0.0940294 10.6277 -9.53674e-07 10.1057 -9.53674e-07 9.56374C6.19888e-05 6.53187 2.4823 4.08545 2.4823 4.08545Z" fill="#B7022D"/>
<path d="M2.79232 10.8892C2.79232 9.35828 3.79667 8.3708 4.42208 7.7373C5.5357 6.609 5.33798 5.3252 5.33798 5.3252C5.33798 5.3252 7.52063 7.20166 7.86356 8.75809C8.19145 10.2467 7.36663 11.0742 7.36663 11.0742C7.36663 11.0742 7.75097 10.9259 7.98996 10.66C8.29438 10.3215 8.40378 9.9113 8.40378 9.9113C8.40378 9.9113 8.531 10.2191 8.3642 11.2722C8.24564 12.0207 7.85673 12.5808 7.40037 12.9931C6.29121 13.995 4.56146 13.898 3.55617 12.7919C3.12541 12.3181 2.79232 11.692 2.79232 10.8892Z" fill="#FFA91A"/>
<path d="M7.10057 10.9354C7.13381 10.9354 7.167 10.9223 7.19165 10.8963C7.24277 10.8424 7.69141 10.3434 7.69141 9.44607C7.69141 9.2407 7.66738 9.02755 7.62008 8.81258C7.55077 8.49793 7.39351 8.14295 7.15276 7.75748C7.11606 7.6987 7.03872 7.68076 6.97988 7.71752C6.9211 7.75422 6.90322 7.83162 6.93992 7.8904C7.16549 8.25153 7.31184 8.57992 7.375 8.86652C7.41841 9.0638 7.44043 9.25876 7.44043 9.44607C7.44043 10.2599 7.02711 10.7051 7.00949 10.7237C6.96181 10.7739 6.96388 10.8533 7.01419 10.901C7.03853 10.924 7.06958 10.9354 7.10057 10.9354ZM6.7639 7.53473C6.78969 7.53473 6.81572 7.52683 6.83811 7.51039C6.89394 7.46937 6.90598 7.39083 6.86496 7.335L6.82814 7.28526C6.78667 7.22974 6.70814 7.21839 6.65256 7.25973C6.59705 7.30119 6.58563 7.37979 6.62703 7.4353L6.66279 7.48354C6.68731 7.51704 6.72539 7.53473 6.7639 7.53473Z" fill="#FFC91D"/>
<path d="M4.42345 7.7373C5.53707 6.609 5.33935 5.3252 5.33935 5.3252C5.33935 5.3252 6.03275 5.92143 6.69937 6.72041C6.08563 7.35522 5.3029 8.28298 5.3029 9.63466C5.3029 10.4375 5.63599 11.0635 6.06675 11.5374C6.55817 12.0781 7.22278 12.377 7.90332 12.4249C7.75541 12.6395 7.58422 12.8284 7.4018 12.9932C6.29264 13.9951 4.56289 13.8981 3.5576 12.792C3.12684 12.3181 2.79376 11.692 2.79376 10.8892C2.79369 9.35828 3.7981 8.37087 4.42345 7.7373Z" fill="#F79219"/>
<path d="M4.42056 7.7373C5.53418 6.609 5.33646 5.3252 5.33646 5.3252C5.33646 5.3252 5.77412 5.70188 6.28812 6.25697C6.15005 6.53605 5.95358 6.82786 5.67513 7.11002C5.04979 7.74358 4.04538 8.73099 4.04538 10.262C4.04538 11.0648 4.37847 11.6908 4.80922 12.1647C5.4791 12.9018 6.47053 13.19 7.38574 13.0044C6.27607 13.9939 4.55605 13.8938 3.55465 12.792C3.12389 12.3181 2.7908 11.692 2.7908 10.8892C2.7908 9.35828 3.79521 8.37087 4.42056 7.7373Z" fill="#EF7816"/>
<path d="M3.3175 0C3.3175 0 4.07074 0.474982 4.05644 1.35657C4.04891 1.82221 3.81105 2.19657 3.63722 2.61133C3.48197 2.98181 3.45111 3.54536 3.45111 3.54536C3.45111 3.54536 2.93504 3.10244 2.8799 2.11998C2.85826 1.73445 3.06238 1.26794 3.16883 0.933905C3.33362 0.416707 3.3175 0 3.3175 0Z" fill="#D10028"/>
<path d="M8.78354 4.26708C8.78354 4.26708 9.42112 3.64261 9.22083 2.78197C9.11507 2.32738 8.64303 2.03005 8.33346 1.70254C8.01794 1.36876 7.87266 0.765625 7.87266 0.765625C7.87266 0.765625 7.5353 1.17769 7.7477 1.97572C7.8842 2.48866 8.31026 2.86026 8.48514 3.16506C8.75594 3.63678 8.78354 4.26708 8.78354 4.26708Z" fill="#D10028"/>
</svg>
