<svg width="15" height="16" viewBox="0 0 15 16" fill="none" xmlns="http://www.w3.org/2000/svg">
<path d="M10.9677 1.18519V0.691358C10.9677 0.296296 10.6714 0 10.2764 0C9.88129 0 9.585 0.395062 9.585 0.691358V1.08642H5.14055V0.691358C5.14055 0.395062 4.84426 0 4.44919 0C4.05413 0 3.75784 0.395062 3.75784 0.691358V1.18519C1.38747 1.38272 0.103516 2.96296 0.103516 5.4321V11.6543C0.103516 14.4198 1.68376 16 4.44919 16H10.2764C13.0418 16 14.622 14.4198 14.622 11.6543V5.4321C14.622 2.96296 13.3381 1.38272 10.9677 1.18519ZM4.44919 3.55556C4.74549 3.55556 5.14055 3.25926 5.14055 2.8642V2.46914H9.585V2.8642C9.585 3.25926 9.98006 3.55556 10.2764 3.55556C10.5726 3.55556 10.9677 3.25926 10.9677 2.8642V2.46914C12.548 2.66667 13.2393 3.65432 13.2393 5.4321V11.6543C13.2393 13.7284 12.2517 14.6173 10.2764 14.6173H4.44919C2.37512 14.6173 1.48623 13.6296 1.48623 11.6543V5.33333C1.48623 3.55556 2.17759 2.5679 3.75784 2.37037V2.76543C3.75784 3.25926 4.05413 3.55556 4.44919 3.55556Z" fill="#111111"/>
<path d="M4.44917 8.00039H10.2763C10.5726 8.00039 10.9677 7.7041 10.9677 7.30903C10.9677 6.91397 10.5726 6.61768 10.2763 6.61768H4.44917C4.05411 6.61768 3.75781 6.91397 3.75781 7.30903C3.75781 7.7041 4.15287 8.00039 4.44917 8.00039Z" fill="#111111"/>
<path d="M7.41213 10.2715H4.44917C4.05411 10.2715 3.75781 10.5678 3.75781 10.9628C3.75781 11.3579 4.15287 11.6542 4.44917 11.6542H7.41213C7.70843 11.6542 8.10349 11.3579 8.10349 10.9628C8.10349 10.5678 7.70843 10.2715 7.41213 10.2715Z" fill="#111111"/>
</svg>
