<svg width="16" height="16" viewBox="0 0 16 16" fill="none" xmlns="http://www.w3.org/2000/svg">
<path d="M13.8668 2.65861L9.99971 0.435045C8.93627 -0.145015 7.38944 -0.145015 6.42268 0.435045L2.55561 2.65861C1.49216 3.23867 0.62207 4.68882 0.62207 5.94562V10.1027C0.62207 11.3595 1.49216 12.713 2.55561 13.3897L6.42268 15.6133C6.90606 15.9033 7.5828 16 8.25953 16C8.93627 16 9.51633 15.9033 10.0964 15.6133L13.9635 13.3897C15.0269 12.8097 15.897 11.3595 15.897 10.1027V5.84894C15.8003 4.68882 14.9302 3.23867 13.8668 2.65861ZM6.90606 1.49849C7.19609 1.30514 7.67947 1.20846 8.16286 1.20846C8.64624 1.20846 9.03295 1.30514 9.41965 1.49849L13.2867 3.72205C13.5768 3.81873 13.7701 4.10876 13.9635 4.39879L11.8366 5.65559L5.84261 2.07855L6.90606 1.49849ZM3.03899 3.62538L4.68249 2.65861L10.6765 6.13897L8.16286 7.6858L2.26557 4.30212C2.45893 4.01208 2.74896 3.81873 3.03899 3.62538ZM3.03899 12.2296C2.36225 11.8429 1.68551 10.7795 1.68551 10.006V5.84894C1.68551 5.65559 1.68551 5.46224 1.78219 5.26888L7.5828 8.65257V14.6465C7.29277 14.6465 7.09941 14.5498 6.90606 14.4532L3.03899 12.2296ZM14.6402 10.006C14.6402 10.7795 14.0601 11.8429 13.2867 12.2296L9.41965 14.3565C9.2263 14.4532 9.03295 14.5498 8.74292 14.5498V8.65257L11.2565 7.20242V8.84592C11.2565 9.13595 11.5465 9.42598 11.8366 9.42598C12.1266 9.42598 12.4166 9.13595 12.4166 8.84592V6.52568L14.5435 5.26888C14.5435 5.55891 14.6402 5.75227 14.6402 5.84894V10.006Z" fill="#111111"/>
</svg>
